<svg width="196" height="54" viewBox="0 0 196 54" fill="none" xmlns="http://www.w3.org/2000/svg">
<path d="M57.3682 42.7055C58.7775 43.4548 61.0254 43.9657 63.3495 43.9657C68.6451 43.9657 71.6926 41.5808 71.6926 37.969C71.6926 35.3455 70.0164 33.5054 66.4352 32.1767C63.9971 31.2569 63.1972 30.7117 63.1972 29.6554C63.1972 28.6333 64.1109 27.8494 65.8258 27.8494C67.426 27.8494 68.9116 28.3947 69.8261 28.8375L70.8923 25.2942C69.6734 24.7148 67.8066 24.2376 65.6354 24.2376C60.9113 24.2376 57.8633 26.8272 57.8633 30.2347C57.8633 32.313 59.311 34.3233 63.2731 35.7544C65.5972 36.6403 66.3208 37.2536 66.3208 38.4121C66.3208 39.5706 65.3684 40.32 63.3877 40.32C61.6348 40.32 59.5394 39.6389 58.4345 39.0597L57.3682 42.7055ZM84.3793 24.2376C78.6265 24.2376 74.3214 27.8494 74.3214 34.2211C74.3214 40.3884 78.4361 44 84.1509 44C88.8745 44 94.056 41.2059 94.056 33.9824C94.056 28.2242 90.3222 24.2376 84.3793 24.2376ZM88.3414 34.0846C88.3414 37.4578 86.8938 40.2861 84.2266 40.2861C81.4835 40.2861 80.0356 37.4922 80.0356 34.1187C80.0356 31.2225 81.141 27.9516 84.2651 27.9516C87.1603 27.9516 88.3414 31.1206 88.3414 34.0846ZM96.037 24.6465V28.3605H98.856V43.6252H104.494V28.3605H108.685V24.6465H104.457C104.457 22.7384 104.457 19.8762 107.618 19.8762C108.495 19.8762 109.143 20.0125 109.676 20.1829L110.095 16.2989C109.256 16.0602 108.152 15.8556 106.742 15.8556C102.589 15.8556 98.856 18.1386 98.856 23.8631V24.6465H96.037ZM109.752 24.6465V28.3605H112.533V37.1172C112.533 39.2299 112.647 43.9657 118.743 43.9657C120.381 43.9657 121.752 43.7955 122.515 43.5228L122.438 39.6728C121.867 39.7747 121.41 39.8432 120.61 39.8432C118.895 39.8432 118.095 38.8889 118.095 36.6064V28.3605H122.781V24.6465H118.095V19.706L112.533 21.171V24.6465H109.752Z" fill="black"/>
<path fill-rule="evenodd" clip-rule="evenodd" d="M4.93991 13.0978H33.3099C35.4768 13.0978 37.2498 14.8708 37.2498 17.0378V45.4077C37.2498 47.5749 35.4768 49.3477 33.3099 49.3477H4.93991C2.77277 49.3477 1 47.5749 1 45.4077V17.0378C1 14.8708 2.77277 13.0978 4.93991 13.0978Z" fill="#94C9ED" stroke="#3F2B2B" stroke-width="1.3228" stroke-miterlimit="22.9256"/>
<path fill-rule="evenodd" clip-rule="evenodd" d="M26.2385 21.9295C24.4124 20.5266 24.2969 19.9115 19.5712 18.1856C18.7986 18.4796 18.3984 18.3897 18.1205 18.9019C17.8107 19.4721 18.7511 19.8208 18.6441 20.5755C17.7403 26.9494 5.78225 32.3706 5.1748 33.4532C10.618 35.4083 18.5638 33.0794 23.8333 34.543C23.3427 29.412 22.0407 26.3882 25.4901 24.168C25.9416 23.8772 26.7429 24.0383 26.7876 23.2803C26.8201 22.7304 26.4261 22.4513 26.2385 21.9295Z" fill="white"/>
<path fill-rule="evenodd" clip-rule="evenodd" d="M22.6338 22.0312C23.2089 20.9856 23.7484 20.6288 24.1998 20.3321L25.9635 18.7914C28.2359 17.3875 30.3776 17.7288 33.1722 18.2714C37.9673 19.2032 43.7286 21.5658 45.7679 19.8913C46.4858 18.6698 46.9143 17.9637 46.7489 16.7365C46.5223 15.0548 45.3872 12.8854 44.2542 11.5762C43.3834 10.57 42.6375 9.55749 41.607 8.75819C40.7409 8.08677 40.0507 7.45895 39.6587 6.43981C39.4778 5.96893 39.4152 5.66979 39.5368 4.97194L41.1971 3.85201C42.2728 3.3641 43.3893 3.14525 45.0199 2.8692C43.0379 1.91689 41.4927 1.34292 38.4195 0.787048C35.7725 0.628115 34.35 0.247061 32.9412 0.339954C31.2865 0.449377 30.3059 1.44714 31.4327 3.90629C31.7728 4.64945 32.4533 5.62378 33.1776 6.67468C34.7555 8.96443 38.538 11.8436 37.8666 14.2171C35.0599 15.1586 32.138 14.8226 28.5218 15.1868C26.3785 14.9841 25.2325 15.8775 24.4968 16.7755C24.1899 17.1505 22.5552 18.9814 22.4472 19.3994C22.1949 20.1985 22.2974 21.1378 22.6338 22.0312Z" fill="#C2CC2B"/>
<path fill-rule="evenodd" clip-rule="evenodd" d="M23.2645 33.5643C16.7765 33.5621 13.2489 33.5995 5.17471 33.4541C3.47197 35.2971 3.87119 35.7598 4.06489 37.7591C6.05372 41.2878 7.94467 41.5135 12.1811 43.3903C17.0582 45.5506 24.6657 49.6465 23.8657 39.3617C23.7021 37.264 23.6015 35.6063 23.2645 33.5643Z" fill="#C2CC2B"/>
<path fill-rule="evenodd" clip-rule="evenodd" d="M22.2867 18.6205C20.6124 18.0215 18.6113 17.6251 18.0278 18.2065C17.5414 18.6909 17.7786 19.4874 18.4402 20.2C18.4959 20.9698 17.7962 21.7832 17.3017 22.766C16.5971 24.0979 15.6771 25.2236 14.7567 25.9039C7.96804 30.9224 -4.79894 36.0311 9.86825 43.0777C14.6725 45.386 23.97 50.8801 24.5689 41.5363C24.7654 38.4691 23.7931 34.22 23.6651 31.0649C23.486 26.6721 24.4673 25.6204 25.476 24.5247C26.4285 24.6624 26.9225 24.1564 27.1 23.1553C27.1634 22.2831 26.2071 21.5352 25.1218 20.2188C25.9272 19.6049 26.8557 18.4403 28.3627 18.3101C30.5626 18.0649 34.8919 19.1752 37.3289 19.8545C41.9465 20.8773 44.5274 21.6804 46.3531 20.1275C47.6209 19.3089 47.5117 16.3517 45.9164 12.8564C44.6861 10.0699 40.3055 7.22805 39.9566 5.70042C39.8226 5.10044 40.2773 4.73898 40.4831 4.53204C41.077 3.93513 42.91 3.35739 43.8534 3.07443C42.5384 3.08355 40.2036 3.60957 39.3494 4.88744C38.9579 5.48819 39.1075 6.04635 40.139 7.38071C42.4404 10.358 45.4202 11.0729 46.4196 16.8933C46.6439 18.2013 46.3818 19.0508 45.7415 19.5651C43.4234 21.4684 36.1855 18.2554 30.8677 17.7641C28.1521 17.5132 26.8282 17.7998 25.8498 18.7277L24.1883 20.3207C26.3369 22.2725 26.75 23.0277 26.3252 23.5745C26.1707 23.7282 25.8207 23.871 25.3502 23.7183C24.8072 23.5931 24.4373 23.0059 24.0954 23.3575C23.7616 23.9283 24.7642 24.0281 24.5645 24.2995C24.1782 24.8244 23.633 25.3772 23.1269 26.8088C22.4702 29.6827 22.7098 31.4155 22.9252 33.1372C23.2624 35.1793 23.4504 37.1626 23.614 39.2601C24.4143 49.5448 16.981 45.2992 12.1041 43.1389C7.86767 41.2621 5.22757 39.9624 4.18799 37.5325C3.54122 35.1998 5.28285 33.9476 7.2449 32.2755C9.88963 30.3373 12.3233 28.6294 14.7841 27.0949C16.2873 25.9417 17.0097 25.1442 17.8019 23.6776C18.3721 22.6947 18.9801 21.093 19.3925 20.9853C19.901 21.0023 20.5056 21.9112 20.8723 21.6057C21.3836 20.8177 18.4085 19.701 18.5254 18.7186C18.7516 18.322 20.2195 18.6257 22.4468 19.3979C25.2925 16.5722 26.0711 15.3727 28.9695 15.1974C32.846 15.0547 37.7737 14.8588 38.0124 14.2704C39.0085 12.4961 34.7665 8.77549 33.1886 6.48575C31.24 3.65944 30.7948 2.31033 31.168 1.53205C31.3621 1.32246 31.3685 0.548458 33.332 0.537773C34.3406 0.505642 35.6972 0.578949 37.1166 0.786324C39.3046 1.1054 39.6406 1.21261 41.4209 1.46358C40.4168 1.0155 39.0556 0.77763 37.2616 0.360031C34.5712 -0.159512 31.945 -0.155876 31.063 0.611435C29.3693 2.09889 30.8273 4.91003 33.947 8.71024C35.6984 10.8441 37.9096 13.1347 37.3301 13.7104C36.8973 14.2863 33.9773 14.2704 32.524 14.4117C27.3401 14.756 26.4762 13.8727 22.2867 18.6205Z" fill="black"/>
<path d="M42.9066 46.2939C43.5461 46.2939 44.1596 46.4546 44.7472 46.7759C45.3347 47.0941 45.7957 47.5518 46.13 48.149C46.4676 48.7463 46.6364 49.3712 46.6364 50.0237C46.6364 50.6729 46.4709 51.2929 46.1398 51.8837C45.8119 52.4712 45.3526 52.9305 44.7618 53.2616C44.1742 53.5895 43.5559 53.7534 42.9066 53.7534C42.2574 53.7534 41.6374 53.5895 41.0466 53.2616C40.4591 52.9305 39.9998 52.4712 39.6687 51.8837C39.3408 51.2929 39.1769 50.6729 39.1769 50.0237C39.1769 49.3712 39.3441 48.7463 39.6784 48.149C40.016 47.5518 40.4786 47.0941 41.0661 46.7759C41.6537 46.4546 42.2672 46.2939 42.9066 46.2939ZM42.9115 47.0243C42.3986 47.0243 41.9068 47.1525 41.4362 47.4089C40.9655 47.6654 40.5938 48.0338 40.3211 48.5142C40.0517 48.9946 39.917 49.4978 39.917 50.0237C39.917 50.5463 40.0485 51.0445 40.3114 51.5185C40.5776 51.9924 40.9476 52.3625 41.4216 52.6286C41.8955 52.8948 42.3921 53.0279 42.9115 53.0279C43.4341 53.0279 43.9308 52.8948 44.4015 52.6286C44.8754 52.3625 45.2455 51.9924 45.5116 51.5185C45.7778 51.0445 45.9109 50.5463 45.9109 50.0237C45.9109 49.4978 45.7746 48.9946 45.5019 48.5142C45.2325 48.0338 44.8608 47.6654 44.3869 47.4089C43.9162 47.1525 43.4244 47.0243 42.9115 47.0243ZM41.2219 52.02V48.0614H42.0253C42.7784 48.0614 43.2004 48.0646 43.2913 48.0711C43.5575 48.0938 43.7636 48.1474 43.9097 48.2318C44.059 48.313 44.1824 48.4396 44.2797 48.6116C44.3804 48.7804 44.4307 48.9687 44.4307 49.1764C44.4307 49.4621 44.3365 49.7072 44.1483 49.9117C43.9632 50.1129 43.7019 50.2379 43.3643 50.2866C43.4844 50.332 43.577 50.3823 43.6419 50.4375C43.7068 50.4895 43.7961 50.5901 43.9097 50.7394C43.9389 50.7784 44.0363 50.9391 44.2018 51.2215L44.6693 52.02H43.676L43.3449 51.3773C43.1209 50.9455 42.9359 50.6745 42.7898 50.5641C42.6437 50.4505 42.4587 50.3937 42.2347 50.3937H42.0253V52.02H41.2219ZM42.0253 49.7705H42.3516C42.8158 49.7705 43.103 49.7526 43.2134 49.7169C43.327 49.6812 43.4163 49.6195 43.4812 49.5319C43.5461 49.441 43.5786 49.3387 43.5786 49.2251C43.5786 49.1147 43.5461 49.0174 43.4812 48.933C43.4195 48.8453 43.3303 48.7836 43.2134 48.7479C43.0965 48.709 42.8093 48.6895 42.3516 48.6895H42.0253V49.7705Z" fill="black"/>
<path fill-rule="evenodd" clip-rule="evenodd" d="M128.139 37.2064C130.015 37.2064 131.536 38.7273 131.536 40.6033C131.536 42.4791 130.015 44 128.139 44C126.263 44 124.742 42.4791 124.742 40.6033C124.742 38.7273 126.263 37.2064 128.139 37.2064Z" fill="black"/>
<path d="M141.448 39.2976V17.0295H135.81V43.6198H151.925V39.2976H141.448ZM156.573 28.9243C157.945 28.1634 159.849 27.6103 161.792 27.6103C164.878 27.6103 165.602 29.0627 165.602 30.9645C158.859 30.9645 154.021 33.2811 154.021 38.2259C154.021 41.3378 156.459 44 160.383 44C162.745 44 164.802 43.1357 166.021 41.6144H166.136L166.479 43.6198H171.546C171.317 42.4443 171.24 40.7501 171.24 39.0554V32.0018C171.24 27.7832 169.45 23.9797 162.859 23.9797C159.545 23.9797 156.916 24.844 155.506 25.6049L156.573 28.9243ZM165.755 37.0157C165.755 39.4705 163.545 40.3351 162.212 40.3351C160.802 40.3351 159.545 39.5399 159.545 37.7071C159.545 34.9063 162.707 34.2494 165.755 34.2494V37.0157ZM181.908 15.8193H176.269V38.0874C176.269 40.0582 176.193 42.2367 176.117 43.6198H180.917L181.184 40.9575H181.298C182.632 43.1357 184.651 44 187.013 44C191.394 44 195.699 40.6115 195.699 33.627C195.699 27.8872 192.575 23.9454 187.889 23.9454C185.184 23.9454 183.203 24.9826 181.984 26.677H181.908V15.8193ZM181.908 32.1747C181.908 29.6848 183.774 28.0253 185.717 28.0253C188.613 28.0253 190.022 30.584 190.022 33.8691C190.022 37.6032 188.46 39.9201 185.717 39.9201C183.469 39.9201 181.908 38.1221 181.908 35.9436V32.1747Z" fill="#5C5C5C"/>
</svg>
